<svg t="1657126313613" class="icon" viewBox="0 0 1024 1024" version="1.1" xmlns="http://www.w3.org/2000/svg" p-id="18514" width="200" height="200"><path d="M1008.15604 821.30884H877.961718c-8.699621 0-15.699315-6.999695-15.699315-15.699315s6.999695-15.699315 15.699315-15.699316h114.395011V393.22751c0-37.59836-30.598665-68.09703-68.09703-68.09703H99.595665c-37.59836 0-68.09703 30.598665-68.09703 68.09703v396.682699h120.994723c8.699621 0 15.699315 6.999695 15.699315 15.699316s-6.999695 15.699315-15.699315 15.699315H15.699324c-8.699621 0-15.699315-6.999695-15.699315-15.699315V393.22751c0-54.897606 44.698051-99.595656 99.595656-99.595656h824.764029c54.897606 0 99.595656 44.698051 99.595657 99.595656v412.382015c-0.099996 8.699621-7.09969 15.699315-15.799311 15.699315z" fill="#050101" p-id="18515"></path><path d="M851.362878 1024H172.492486c-19.799136 0-35.798439-16.099298-35.798439-35.798439V657.915966c0-19.699141 16.099298-35.798439 35.798439-35.798439h678.870392c19.699141 0 35.798439 16.099298 35.798439 35.798439v330.285595c0 19.699141-16.099298 35.798439-35.798439 35.798439zM172.492486 653.516158c-2.399895 0-4.399808 1.999913-4.399808 4.399808v330.285595c0 2.399895 1.999913 4.399808 4.399808 4.399808h678.870392c2.399895 0 4.399808-1.999913 4.399808-4.399808V657.915966c0-2.399895-1.999913-4.399808-4.399808-4.399808H172.492486zM871.462001 325.030484c-8.699621 0-15.699315-6.999695-15.699315-15.699315V35.843097c0-2.399895-1.999913-4.399808-4.399808-4.399808h-604.973615c-8.699621 0-15.699315-6.999695-15.699315-15.699316S237.689642 0.044658 246.389263 0.044658h604.973615C871.062019 0.044658 887.161317 16.143956 887.161317 35.843097v273.488072c0 8.699621-6.999695 15.699315-15.699316 15.699315z" fill="#050101" p-id="18516"></path><path d="M244.189359 137.238675h-91.696001c-8.699621 0-15.699315-6.999695-15.699315-15.699316s6.999695-15.699315 15.699315-15.699315h78.19659v-89.996075c0-8.699621 6.999695-15.699315 15.699315-15.699315s15.699315 6.999695 15.699315 15.699315v103.495486c0 9.799573-8.099647 17.899219-17.899219 17.89922z" fill="#050101" p-id="18517"></path><path d="M152.393362 325.030484c-8.699621 0-15.699315-6.999695-15.699315-15.699315V107.53997c0-8.699621 6.999695-15.699315 15.699315-15.699315s15.699315 6.999695 15.699316 15.699315v201.791199c0.099996 8.699621-6.999695 15.699315-15.699316 15.699315zM15.699324 481.123677H1008.15604v20.999084H15.699324zM754.867086 386.227815h5.199774" fill="#050101" p-id="18518"></path><path d="M807.264801 409.826786m-23.598971 0a23.598971 23.598971 0 1 0 47.197942 0 23.598971 23.598971 0 1 0-47.197942 0Z" fill="#050101" p-id="18519"></path><path d="M901.560689 409.826786m-23.598971 0a23.598971 23.598971 0 1 0 47.197941 0 23.598971 23.598971 0 1 0-47.197941 0Z" fill="#050101" p-id="18520"></path><path d="M725.068386 800.309756H298.786978c-8.699621 0-15.699315-6.999695-15.699316-15.699315s6.999695-15.699315 15.699316-15.699316H725.168382c8.699621 0 15.699315 6.999695 15.699315 15.699316s-7.09969 15.699315-15.799311 15.699315zM725.068386 891.205792H298.786978c-8.699621 0-15.699315-6.999695-15.699316-15.699316s6.999695-15.699315 15.699316-15.699315H725.168382c8.699621 0 15.699315 6.999695 15.699315 15.699315s-7.09969 15.699315-15.799311 15.699316zM152.393362 116.23959c-4.299812 0-8.599625-1.699926-11.699489-5.199773-5.799747-6.499717-5.299769-16.399285 1.099952-22.199032L235.68973 4.044484c6.499717-5.799747 16.399285-5.299769 22.199031 1.099952 5.799747 6.499717 5.299769 16.399285-1.099952 22.199031l-93.9959 84.796302c-2.799878 2.799878-6.599712 4.099821-10.399547 4.099821z" fill="#050101" p-id="18521"></path></svg>